<svg width="20" height="14" viewBox="0 0 20 14" fill="none" xmlns="http://www.w3.org/2000/svg">
<path d="M19.0035 4.81175C18.9192 4.6899 18.8066 4.59031 18.6754 4.5215C18.5441 4.45269 18.3982 4.41672 18.25 4.41667H5.72193L4.66409 1.8775C4.52539 1.54312 4.29052 1.25746 3.98927 1.05673C3.68801 0.856001 3.33393 0.749247 2.97193 0.750004H0.833344V2.58334H2.97193L7.32059 13.0196C7.39025 13.1866 7.50775 13.3292 7.65831 13.4295C7.80887 13.5298 7.98575 13.5834 8.16668 13.5833H15.5C15.8823 13.5833 16.2242 13.3459 16.3589 12.9893L19.1089 5.656C19.1609 5.51724 19.1785 5.36794 19.1601 5.22091C19.1417 5.07387 19.088 4.93348 19.0035 4.81175ZM14.8648 11.75H8.77809L6.48643 6.25H16.9273L14.8648 11.75Z" fill="white"/>
</svg>
